<?xml version="1.0" encoding="UTF-8" standalone="no"?>
<!-- Created with Inkscape (http://www.inkscape.org/) -->

<svg
   xmlns:dc="http://purl.org/dc/elements/1.1/"
   xmlns:cc="http://creativecommons.org/ns#"
   xmlns:rdf="http://www.w3.org/1999/02/22-rdf-syntax-ns#"
   xmlns:svg="http://www.w3.org/2000/svg"
   xmlns="http://www.w3.org/2000/svg"
   xmlns:sodipodi="http://sodipodi.sourceforge.net/DTD/sodipodi-0.dtd"
   xmlns:inkscape="http://www.inkscape.org/namespaces/inkscape"
   width="210mm"
   height="297mm"
   viewBox="0 0 210 297"
   version="1.1"
   id="svg8"
   inkscape:version="0.92.2 (5c3e80d, 2017-08-06)"
   sodipodi:docname="drawing.svg">
  <defs
     id="defs2" />
  <sodipodi:namedview
     id="base"
     pagecolor="#ffffff"
     bordercolor="#666666"
     borderopacity="1.0"
     inkscape:pageopacity="0.0"
     inkscape:pageshadow="2"
     inkscape:zoom="0.35"
     inkscape:cx="400"
     inkscape:cy="560"
     inkscape:document-units="mm"
     inkscape:current-layer="layer1"
     showgrid="false"
     inkscape:window-width="1600"
     inkscape:window-height="837"
     inkscape:window-x="-8"
     inkscape:window-y="-8"
     inkscape:window-maximized="1" />
  <metadata
     id="metadata5">
    <rdf:RDF>
      <cc:Work
         rdf:about="">
        <dc:format>image/svg+xml</dc:format>
        <dc:type
           rdf:resource="http://purl.org/dc/dcmitype/StillImage" />
        <dc:title></dc:title>
      </cc:Work>
    </rdf:RDF>
  </metadata>
  <g
     inkscape:label="Layer 1"
     inkscape:groupmode="layer"
     id="layer1">
    <flowRoot
       xml:space="preserve"
       id="flowRoot12"
       style="font-style:normal;font-weight:normal;font-size:40px;line-height:1.25;font-family:sans-serif;letter-spacing:0px;word-spacing:0px;fill:#000000;fill-opacity:1;stroke:none"
       transform="scale(0.26458333)"><flowRegion
         id="flowRegion14"><rect
           id="rect16"
           width="542.85712"
           height="294.28571"
           x="137.14285"
           y="379.66254" /></flowRegion><flowPara
         id="flowPara18" /></flowRoot>    <g
       id="g41">
      <ellipse
         ry="101.67559"
         rx="91.470238"
         cy="143.91963"
         cx="106.58929"
         id="path20"
         style="fill:#ff0000;stroke-width:0.26458332" />
      <path
         inkscape:connector-curvature="0"
         d="m 49.600082,109.968 c -0.06423,2.46106 -0.04609,4.92348 -0.03096,7.38509 -0.09932,1.90171 0.199795,3.77438 0.440193,5.65267 0.135268,1.51697 0.626676,2.96113 0.844717,4.46596 0.198204,2.58023 0.160065,5.16333 0.400571,7.74334 0.289531,2.28711 0.449585,4.5821 0.532265,6.88475 0.05507,2.053 0.07165,4.1073 0.0668,6.16102 -5.29e-4,1.24169 0.0029,2.48337 0.0057,3.72505 0,0 -9.976082,5.08186 -9.976082,5.08186 v 0 c 0.0052,-1.24426 0.01169,-2.48853 0.01222,-3.7328 -0.0054,-2.04594 0.01397,-4.09209 -0.03493,-6.13772 -0.06292,-2.28847 -0.208586,-4.57243 -0.453088,-6.84921 -0.236593,-2.54861 -0.285184,-5.09789 -0.471654,-7.64917 -0.200501,-1.51695 -0.696272,-2.96795 -0.832072,-4.49182 -0.22877,-1.9273 -0.615699,-3.84056 -0.470514,-5.79136 0.01497,-2.45108 0.03381,-4.90301 -0.03096,-7.35353 0,0 9.997784,-5.09413 9.997784,-5.09413 z"
         id="path22"
         style="fill:#000080;stroke-width:0.26458332" />
      <path
         inkscape:connector-curvature="0"
         d="m 49.863488,110.00587 c 2.700462,0.12318 5.388425,-0.23556 8.075734,-0.46005 2.081493,-0.26967 3.663728,-0.24839 5.595057,0.54595 1.185418,0.90296 2.277295,1.91068 3.409426,2.88142 1.228873,0.87758 2.333455,1.90241 3.474331,2.88498 1.364398,1.03108 2.613993,2.18737 3.73684,3.48198 0.987422,1.4623 2.079365,2.83208 2.916772,4.38952 0.829773,1.57505 1.619498,3.17292 2.380376,4.78263 0.802384,1.7094 1.327815,3.50294 1.772169,5.33258 0.53208,2.35698 0.689002,4.78003 0.810535,7.18738 0.03831,1.91538 -0.387445,3.74772 -1.190051,5.4745 -0.834488,1.47113 -1.837229,2.83911 -2.923682,4.1322 -1.130803,1.17484 -2.211102,2.40493 -3.412469,3.50865 -3.567184,3.05798 -7.893635,4.74552 -11.917609,7.30185 -2.946333,1.87173 6.043102,-3.49547 9.073444,-5.22789 0.176913,-0.10114 -0.341548,0.22238 -0.512321,0.33357 -4.386072,2.66463 -8.449368,6.30621 -13.515655,7.42116 -1.495012,0.29568 -2.948402,0.30144 -4.426143,-0.0298 -1.260946,-0.14621 -2.383798,-0.72108 -3.618616,-0.98344 -1.124201,-0.4748 -2.267802,-0.82428 -3.254219,-1.56213 -0.980858,-0.57486 -2.048192,-0.93537 -3.03888,-1.50953 -0.746302,-0.34752 -1.450268,-0.80486 -2.111917,-1.29513 0,0 9.507331,-6.03492 9.507331,-6.03492 v 0 c 0.636148,0.44888 1.306322,0.84956 2.010868,1.18263 1.044069,0.51862 2.151713,0.92043 3.109597,1.59482 0.947423,0.55007 1.984939,0.91514 3.026781,1.24389 1.186048,0.33742 2.336199,0.79175 3.573809,0.92354 1.377048,0.18191 2.774365,5.3e-4 4.107516,-0.37642 3.570467,-1.30356 8.625319,-4.79919 -7.6063,4.63397 -0.418671,0.24331 0.81275,-0.5273 1.206497,-0.80917 0.175996,-0.12599 0.360688,-0.23935 0.541034,-0.35903 3.986088,-2.14414 0.181001,-0.0892 10.659268,-6.20566 3.000767,-1.75162 -5.992794,3.51825 -8.998796,5.26087 -0.200507,0.11623 0.396674,-0.24133 0.581451,-0.38122 1.381127,-1.04563 -0.280763,0.0451 1.21934,-0.89872 1.247608,-1.0489 2.355561,-2.2262 3.463941,-3.41766 1.20219,-1.12303 2.076839,-2.53278 3.040708,-3.85532 0.924808,-1.51918 1.402596,-3.17272 1.475988,-4.95595 -0.07047,-2.34291 -0.179292,-4.70085 -0.694819,-6.99554 -0.435234,-1.75327 -0.963983,-3.46766 -1.704573,-5.11808 -0.740307,-1.59648 -1.526553,-3.17408 -2.34692,-4.7304 -0.794843,-1.47872 -1.854314,-2.77782 -2.778935,-4.17518 -1.113364,-1.24955 -2.389701,-2.30303 -3.697877,-3.33991 -1.108761,-1.00366 -2.259672,-1.95534 -3.43644,-2.87918 -1.049269,-0.87263 -2.045103,-1.86626 -3.23314,-2.53889 -1.691743,-0.57073 -3.458797,-0.36354 -5.210093,-0.2141 -2.735659,0.21911 -5.468411,0.50244 -8.217156,0.45065 0,0 9.077798,-6.5954 9.077798,-6.5954 z"
         id="path24"
         style="fill:#000080;stroke-width:0.26458332" />
      <path
         inkscape:connector-curvature="0"
         d="m 79.667774,168.79985 c 0.07173,-2.59614 0.04207,-5.19365 0.04517,-7.79046 0.0077,-2.73432 0.0074,-5.46864 -0.0051,-8.20294 -0.08705,-2.19966 -0.02323,-4.37321 0.374645,-6.53918 0.404199,-2.46767 0.946748,-4.90815 1.416635,-7.36337 0.239625,-1.64229 0.691724,-3.23951 0.951801,-4.87803 0.432787,-2.07384 0.995717,-4.10328 1.3285,-6.19876 0.152225,-2.02626 0.490209,-4.01983 0.838729,-6.01847 -0.0054,-0.51644 0.251544,-1.06956 0.193302,-1.59219 -0.01058,-0.0949 -0.176985,-0.23334 -0.0897,-0.27209 10.400469,-4.61679 9.252151,-7.79139 10.46036,-3.59442 0.909317,2.74745 1.973501,5.43801 2.925538,8.17102 0.901075,2.70616 1.732809,5.43503 2.637136,8.14026 0.81249,2.69982 1.49769,5.41764 2.59764,8.02183 1.17864,2.46936 2.29113,4.96914 3.21601,7.54498 0.72323,1.85256 1.43495,3.71253 2.09688,5.58838 0.91242,1.63594 1.3553,3.42714 1.89836,5.19884 0.33692,1.57667 1.02915,2.94975 1.82813,4.32964 0.8389,1.50278 1.49398,3.09399 2.24949,4.63596 0.4785,1.00706 0.232,0.51312 0.73842,1.48236 0,0 -9.72428,5.56131 -9.72428,5.56131 v 0 c -0.52873,-1.00652 -0.27976,-0.50193 -0.74841,-1.51302 -0.7407,-1.52042 -1.40534,-3.07684 -2.21468,-4.5649 -0.84149,-1.45272 -1.6258,-2.88325 -1.9484,-4.55499 -0.53797,-1.76171 -0.920432,-3.5609 -1.896538,-5.16033 -0.617766,-1.89153 -1.314548,-3.75926 -2.007315,-5.62404 -0.885288,-2.56559 -2.034701,-5.02924 -3.172793,-7.49091 -1.11197,-2.62706 -1.864863,-5.3494 -2.642915,-8.0875 -0.936435,-2.69485 -1.714347,-5.43808 -2.581077,-8.15497 -0.986837,-2.7231 -2.008793,-5.43262 -3.08152,-8.12298 -1.542804,-4.39729 -0.432387,-0.41626 9.765427,-6.31093 0.06828,-0.0395 -0.08932,-0.20878 -0.16016,-0.17412 -0.330499,0.16166 -0.03897,1.42669 -0.266332,1.62155 -0.330587,2.0116 -0.858859,3.9844 -0.930458,6.03396 -0.274508,2.08675 -0.676661,4.1324 -1.246732,6.15626 -0.214797,1.67395 -0.672508,3.28471 -0.964841,4.94165 -0.466426,2.46343 -1.149641,4.88001 -1.432314,7.37725 -0.43834,2.10436 -0.57736,4.20656 -0.490873,6.35664 -0.01241,2.73604 -0.01281,5.4721 -0.0051,8.20815 0.0031,2.58147 -0.02699,5.16366 0.04517,7.74444 0,0 -9.997784,5.09412 -9.997784,5.09412 z"
         id="path26"
         style="fill:#000080;stroke-width:0.26458332" />
      <path
         inkscape:connector-curvature="0"
         d="m 95.22063,150.82729 c 1.937163,0.0518 3.874495,0.0175 5.81156,-0.009 1.25598,-0.003 2.51192,0.009 3.76791,0.0114 0.25921,1.9e-4 0.51842,2.7e-4 0.77763,5.3e-4 0,0 -9.070513,6.59011 -9.070513,6.59011 v 0 c -0.259713,1.9e-4 -0.519425,2.7e-4 -0.779137,5.3e-4 -1.266434,0.002 -2.532812,0.0147 -3.799218,0.0114 -1.928559,-0.0278 -3.85734,-0.0603 -5.78603,-0.009 0,0 9.077798,-6.5954 9.077798,-6.5954 z"
         id="path28"
         style="fill:#000080;stroke-width:0.26458332" />
      <path
         inkscape:connector-curvature="0"
         d="m 116.70944,170.31176 c 0.0714,-2.44901 0.10872,-4.89395 -0.15608,-7.33167 -0.25012,-1.79217 -0.43768,-3.59014 -0.53442,-5.39696 -0.0669,-1.52196 -0.0669,-3.04574 -0.0686,-4.56885 -0.0301,-1.48797 0.0701,-2.98079 -0.0552,-4.46482 -0.30391,-1.66162 -0.47475,-3.33925 -0.58658,-5.02347 -0.0938,-1.61531 -0.10488,-3.2337 -0.11197,-4.85122 -0.14202,-1.6034 -0.45885,-3.18741 -0.76412,-4.76648 -0.40802,-2.19484 -0.56444,-4.42041 -0.66793,-6.64663 -0.0577,-1.94614 -0.0702,-3.89321 -0.077,-5.84007 -0.0706,-1.30192 0.12304,-2.62805 -0.0449,-3.92514 9.90118,-5.27367 8.70144,-8.10085 12.36463,-2.31056 1.17868,2.11292 2.34777,4.22038 3.59717,6.29246 1.13599,1.64389 2.17618,3.35188 3.26116,5.03009 1.20674,1.79114 2.62953,3.42118 3.89173,5.17363 1.07001,1.31752 1.58186,3.06931 2.70665,4.33357 3.14546,-2.12511 -1.92536,1.30825 -9.49147,4.85343 -0.17053,0.0799 0.15474,-0.34527 0.2023,-0.52748 0.0578,-0.22158 0.0856,-0.45032 0.11231,-0.67776 0.10054,-0.8569 0.0661,-0.83949 0.0278,-1.70562 -0.40319,-1.56409 -0.95936,-3.06602 -1.22393,-4.66536 -0.26607,-2.93461 -0.25458,-5.89917 -0.14742,-8.84228 0.14457,-2.30184 0.38672,-4.59562 0.52401,-6.89796 0.20024,-6.41667 1.1882,-3.77668 10.59865,-8.70854 1.49137,0.94645 1.92415,2.60365 2.4328,4.18771 0.42487,1.96126 0.99219,3.87398 1.67743,5.75844 0.77817,2.22659 1.61988,4.42438 2.23424,6.70395 0.71489,2.14397 1.7664,4.14637 2.61864,6.23394 0.57068,1.7447 1.21854,3.47536 2.06004,5.1094 0.65599,1.48068 1.09044,3.05662 1.50894,4.61932 0.30844,1.97493 0.66262,3.93344 1.13664,5.87634 0.45045,2.03635 1.16742,3.9965 1.68911,6.01431 0.45278,1.65103 1.01488,3.28707 1.79283,4.81512 0.63036,0.89158 1.33711,1.64031 2.12155,2.38333 0,0 -9.57224,5.91345 -9.57224,5.91345 v 0 c -0.89439,-0.81614 -1.61261,-1.74798 -2.30547,-2.74076 -0.79656,-1.61188 -1.36503,-3.33193 -1.85137,-5.06002 -0.50111,-2.02732 -1.27369,-3.97358 -1.69306,-6.0221 -0.47377,-1.93138 -0.92171,-3.86348 -1.1732,-5.83847 -0.37507,-1.49222 -0.80579,-2.98793 -1.39778,-4.40711 -0.83166,-1.67469 -1.5055,-3.4378 -2.06008,-5.22257 -0.83568,-2.14603 -1.94041,-4.17549 -2.67858,-6.36252 -0.55723,-2.25945 -1.41032,-4.40578 -2.20084,-6.5906 -0.71797,-1.88868 -1.27952,-3.82517 -1.7185,-5.79744 -0.34224,-1.08747 -0.58993,-2.75038 -1.84541,-3.11104 3.1122,-1.84457 6.23823,-3.666 9.3366,-5.53371 0.0948,-0.0571 -0.23856,0.0194 -0.31746,0.097 -0.62812,0.61754 -0.22041,1.91969 -0.38834,2.66097 -0.14355,2.32185 -0.42663,4.6297 -0.6445,6.94518 -0.18275,2.85538 -0.0894,5.72674 0.16344,8.57637 0.24103,1.63293 0.78399,3.16826 1.24989,4.7465 0.46304,4.0965 -1.58099,16.66105 -10.45122,8.96938 -0.96423,-1.4165 -1.66041,-3.00242 -2.63182,-4.41737 -1.26926,-1.77641 -2.75008,-3.38897 -3.96335,-5.20391 -1.06552,-1.70379 -2.11902,-3.41482 -3.2519,-5.07557 -1.21162,-2.07624 -2.34326,-4.19168 -3.59522,-6.24359 -0.30552,-0.46261 -0.56134,-0.95835 -0.88824,-1.40611 -3.01996,-4.13651 -7.15817,1.72128 8.26405,-7.05695 -0.16201,1.31463 0.008,2.65389 -0.0579,3.97313 -0.009,1.93816 -0.0245,3.87689 0.0299,5.81458 0.068,2.17085 0.1881,4.34607 0.59275,6.48464 0.34345,1.641 0.6806,3.27972 0.89755,4.94451 7.9e-4,1.60068 -2.3e-4,3.20206 0.0682,4.80162 0.088,1.66337 0.23258,3.32288 0.57214,4.95672 0.22528,1.51581 0.0811,3.05265 0.11719,4.58174 -2.6e-4,1.50886 -0.004,3.01807 0.0399,4.52644 0.068,1.79388 0.21331,3.58222 0.44919,5.36241 0.26854,2.46581 0.24557,4.92869 0.27441,7.40695 0,0 -9.99778,5.09413 -9.99778,5.09413 z"
         id="path30"
         style="fill:#000080;stroke-width:0.26458332" />
      <path
         inkscape:connector-curvature="0"
         d="m 157.22611,109.57488 c 1.62601,2.6161 3.27127,5.22658 4.74358,7.93324 0.85864,1.74969 1.98665,3.30283 3.35197,4.68198 1.4023,1.49653 2.85165,2.92632 4.12744,4.53927 1.51563,1.51498 2.69856,3.27806 3.89655,5.03905 0.90286,1.42295 1.77729,2.86587 2.44288,4.41642 0.7097,1.21743 1.04035,2.59839 1.72634,3.82581 0.52644,1.0233 1.33983,1.84717 2.0583,2.73502 0.89584,1.27839 1.76458,2.54441 2.36264,3.99177 0.0813,0.26097 0.17306,0.51892 0.24398,0.78291 0.18074,0.67284 0.13812,0.7865 0.35688,1.4051 0.0967,0.27349 0.51388,1.05135 0.0533,-0.15158 -11.83574,7.60121 -9.22033,7.88066 -9.15655,1.99388 0.002,-1.51118 -0.011,-3.02234 -0.0175,-4.5335 -0.006,-1.51527 -0.007,-3.03055 -0.008,-4.54583 0.0227,-1.50349 -0.0534,-3.00986 0.0501,-4.51062 0.2502,-1.30323 0.48197,-2.60261 0.59842,-3.92551 0.10594,-1.5837 0.11556,-3.17201 0.12096,-4.75864 0.015,-2.00122 0.0122,-4.00248 0.003,-6.00372 -0.009,-1.66371 -0.0132,-3.32744 -0.0156,-4.99117 -0.007,-1.63043 0.007,-3.26077 0.008,-4.89119 -0.002,-1.63798 -0.006,-3.27595 -0.007,-4.91393 -0.003,-0.95505 0.008,-1.91004 -0.0148,-2.86487 0,0 10.01917,-5.105019 10.01917,-5.105019 v 0 c -0.022,0.959859 -0.0118,1.919859 -0.0148,2.879929 -0.002,1.6405 -0.005,3.28099 -0.007,4.92149 2.7e-4,1.62776 0.0143,3.25544 0.008,4.88321 -0.002,1.66822 -0.006,3.33644 -0.0124,5.00466 -0.006,2.00013 -0.003,4.00024 0.0102,6.00034 -0.001,1.60585 0.0192,3.21273 -0.0592,4.8173 -0.0807,1.34168 -0.20766,2.68311 -0.56273,3.98477 -0.31058,1.42912 -0.0426,2.9275 -0.1306,4.38097 2.6e-4,1.51413 7.9e-4,3.02826 0.005,4.54239 0.005,1.51357 0.0158,3.02711 0.025,4.54066 0.008,6.66825 0.1243,3.64866 -9.80495,10.00164 -0.96392,-0.98173 -1.20475,-2.14993 -1.47882,-3.47592 -0.52697,-1.35694 -1.36521,-2.50662 -2.21424,-3.68048 -0.77548,-0.92836 -1.60917,-1.82821 -2.1562,-2.91802 -0.69196,-1.27101 -1.06917,-2.67089 -1.76661,-3.93994 -0.61216,-1.49639 -1.47759,-2.86319 -2.3153,-4.24151 -1.15275,-1.75205 -2.34509,-3.46116 -3.81185,-4.97332 -1.28535,-1.56072 -2.73089,-2.95508 -4.12165,-4.41866 -1.42106,-1.47198 -2.53803,-3.16009 -3.4267,-5.00694 -1.39861,-2.68972 -2.9952,-5.29065 -4.76408,-7.75192 0,0 9.65512,-5.69952 9.65512,-5.69952 z"
         id="path32"
         style="fill:#000080;stroke-width:0.26458332" />
    </g>
  </g>
</svg>
